<svg xmlns="http://www.w3.org/2000/svg" width="15.999" height="15" viewBox="0 0 15.999 15">
    <defs>
        <style>
            .cls-1{fill:#707070}
        </style>
    </defs>
    <g id="eye-blocked">
        <path id="패스_1010" d="M14.78.219a.75.75 0 0 0-1.06 0l-3.159 3.159A8.813 8.813 0 0 0 8 3a8.96 8.96 0 0 0-8 5 9.162 9.162 0 0 0 2.7 3.236L.219 13.72a.75.75 0 0 0 1.061 1.06l13.5-13.5a.75.75 0 0 0 0-1.06zM6.5 5a1.5 1.5 0 0 1 1.42 1.018l-1.9 1.9A1.5 1.5 0 0 1 6.5 5zM1.72 8a7.612 7.612 0 0 1 2.335-2.349c.061-.039.123-.077.185-.114a4 4 0 0 0 .488 3.672l-.952.952A7.609 7.609 0 0 1 1.72 8z" class="cls-1"/>
        <path id="패스_1011" d="M18.783 12.6a3.994 3.994 0 0 0-.189-1.217l-5.028 5.028a4 4 0 0 0 5.217-3.811z" class="cls-1" transform="translate(-6.783 -5.69)"/>
        <path id="패스_1012" d="M17.986 9.062L16.9 10.146l.059.037a7.606 7.606 0 0 1 2.341 2.348 7.611 7.611 0 0 1-2.335 2.348 7.331 7.331 0 0 1-5.725.932l-1.2 1.2a8.793 8.793 0 0 0 2.982.518 8.961 8.961 0 0 0 8-5 9.146 9.146 0 0 0-3.031-3.469z" class="cls-1" transform="translate(-5.018 -4.531)"/>
    </g>
</svg>
