<svg width="33" height="33" viewBox="0 0 33 33" fill="none" xmlns="http://www.w3.org/2000/svg">
<path d="M9.79811 21.1372C9.36305 21.5723 9.34234 22.3492 9.80847 22.7946C10.2539 23.2607 11.0411 23.24 11.4762 22.8049L16.5001 17.7811L21.524 22.8049C21.9694 23.2504 22.7359 23.2607 23.1813 22.7946C23.6475 22.3492 23.6371 21.5723 23.1917 21.1269L18.1678 16.103L23.1917 11.0894C23.6371 10.6337 23.6475 9.86714 23.1813 9.42172C22.7359 8.95558 21.9694 8.96594 21.524 9.41136L16.5001 14.4353L11.4762 9.41136C11.0411 8.9763 10.2539 8.95558 9.80847 9.42172C9.34234 9.86714 9.36305 10.644 9.79811 11.0791L14.822 16.103L9.79811 21.1372Z" fill="#1E0073"/>
</svg>
